<svg width="20" height="21" viewBox="0 0 20 21" fill="none" xmlns="http://www.w3.org/2000/svg">
<g clip-path="url(#clip0_13_35)">
<path fill-rule="evenodd" clip-rule="evenodd" d="M17.9422 17.5578L14.0305 13.6469C16.3858 10.8192 16.1004 6.63911 13.3826 4.15779C10.6649 1.67647 6.47612 1.77167 3.87389 4.37389C1.27167 6.97612 1.17647 11.1649 3.65779 13.8826C6.13911 16.6004 10.3192 16.8858 13.1469 14.5305L17.0578 18.4422C17.302 18.6864 17.698 18.6864 17.9422 18.4422C18.1864 18.198 18.1864 17.802 17.9422 17.5578ZM3.125 9.25C3.125 6.1434 5.6434 3.625 8.75 3.625C11.8566 3.625 14.375 6.1434 14.375 9.25C14.375 12.3566 11.8566 14.875 8.75 14.875C5.64483 14.8716 3.12844 12.3552 3.125 9.25Z" fill="#211A0A"/>
</g>
<defs>
<clipPath id="clip0_13_35">
<rect width="20" height="20" fill="white" transform="translate(0 0.5)"/>
</clipPath>
</defs>
</svg>
